<?xml version="1.0" encoding="UTF-8" standalone="no"?>
<!-- Created with Inkscape (http://www.inkscape.org/) -->

<svg
   xmlns:dc="http://purl.org/dc/elements/1.1/"
   xmlns:cc="http://creativecommons.org/ns#"
   xmlns:rdf="http://www.w3.org/1999/02/22-rdf-syntax-ns#"
   xmlns:svg="http://www.w3.org/2000/svg"
   xmlns="http://www.w3.org/2000/svg"
   xmlns:xlink="http://www.w3.org/1999/xlink"
   xmlns:sodipodi="http://sodipodi.sourceforge.net/DTD/sodipodi-0.dtd"
   xmlns:inkscape="http://www.inkscape.org/namespaces/inkscape"
   width="471.72083"
   height="74.757057"
   viewBox="0 0 124.80946 19.779471"
   version="1.1"
   id="svg8"
   inkscape:version="0.92.2 (5c3e80d, 2017-08-06)"
   sodipodi:docname="logo.svg">
  <defs
     id="defs2">
    <radialGradient
       inkscape:collect="always"
       xlink:href="#linearGradient1327"
       id="radialGradient2720"
       gradientUnits="userSpaceOnUse"
       gradientTransform="matrix(0.30097737,0,0,0.30097737,194.3516,234.44032)"
       cx="112.87943"
       cy="72.476723"
       fx="112.87943"
       fy="72.476723"
       r="20.25" />
    <linearGradient
       id="linearGradient1327"
       inkscape:collect="always">
      <stop
         id="stop1323"
         offset="0"
         style="stop-color:#ffffff;stop-opacity:1" />
      <stop
         id="stop1325"
         offset="1"
         style="stop-color:#f9f9f9;stop-opacity:1" />
    </linearGradient>
    <radialGradient
       inkscape:collect="always"
       xlink:href="#linearGradient1327"
       id="radialGradient2718"
       gradientUnits="userSpaceOnUse"
       gradientTransform="matrix(0.30097737,0,0,0.30097737,194.3516,234.44032)"
       cx="69.624969"
       cy="72.476723"
       fx="69.624969"
       fy="72.476723"
       r="20.25" />
    <radialGradient
       inkscape:collect="always"
       xlink:href="#linearGradient1344"
       id="radialGradient2716"
       gradientUnits="userSpaceOnUse"
       gradientTransform="matrix(1,0,0,0.09970933,-142.0459,247.22819)"
       cx="200.28127"
       cy="273.49173"
       fx="200.28127"
       fy="273.49173"
       r="49.779903" />
    <linearGradient
       id="linearGradient1344"
       inkscape:collect="always">
      <stop
         style="stop-color:#003380;stop-opacity:1"
         offset="0"
         id="stop1340" />
      <stop
         id="stop1342"
         offset="1"
         style="stop-color:#002255;stop-opacity:1" />
    </linearGradient>
    <radialGradient
       inkscape:collect="always"
       xlink:href="#linearGradient1344"
       id="radialGradient1843"
       gradientUnits="userSpaceOnUse"
       gradientTransform="matrix(1,0,0,0.09970933,-28.833685,221.03819)"
       cx="200.28127"
       cy="273.49173"
       fx="200.28127"
       fy="273.49173"
       r="49.779903" />
  </defs>
  <sodipodi:namedview
     id="base"
     pagecolor="#ffffff"
     bordercolor="#666666"
     borderopacity="1.0"
     inkscape:pageopacity="0.0"
     inkscape:pageshadow="2"
     inkscape:zoom="1.4"
     inkscape:cx="286.35531"
     inkscape:cy="-25.196096"
     inkscape:document-units="mm"
     inkscape:current-layer="layer1"
     showgrid="false"
     units="px"
     fit-margin-top="5"
     fit-margin-left="5"
     fit-margin-right="5"
     fit-margin-bottom="5"
     inkscape:window-width="1920"
     inkscape:window-height="1017"
     inkscape:window-x="-8"
     inkscape:window-y="-8"
     inkscape:window-maximized="1" />
  <metadata
     id="metadata5">
    <rdf:RDF>
      <cc:Work
         rdf:about="">
        <dc:format>image/svg+xml</dc:format>
        <dc:type
           rdf:resource="http://purl.org/dc/dcmitype/StillImage" />
        <dc:title />
      </cc:Work>
    </rdf:RDF>
  </metadata>
  <g
     inkscape:label="Layer 1"
     inkscape:groupmode="layer"
     id="layer1"
     transform="translate(-7.1428852,-268.21144)">
    <g
       aria-label="&lt; Développeur. /&gt; "
       style="font-style:normal;font-weight:normal;font-size:5.7963562px;line-height:1.25;font-family:sans-serif;letter-spacing:0px;word-spacing:0px;fill:#333333;fill-opacity:1;stroke:none;stroke-width:0.14490892"
       id="text2684">
      <path
         d="m 48.894497,284.17455 v 0.80096 l -2.847234,-1.23399 v -0.68492 l 2.847234,-1.23399 v 0.80662 l -1.984007,0.76417 z"
         style="font-style:normal;font-variant:normal;font-weight:normal;font-stretch:normal;font-size:5.7963562px;font-family:'Arial Rounded MT Bold';-inkscape-font-specification:'Arial Rounded MT Bold, Normal';font-variant-ligatures:normal;font-variant-caps:normal;font-variant-numeric:normal;font-feature-settings:normal;text-align:start;writing-mode:lr-tb;text-anchor:start;fill:#333333;stroke-width:0.14490892"
         id="path908" />
      <path
         d="m 51.588896,281.30184 h 1.095308 q 0.427368,0 0.733035,0.0792 0.305667,0.0792 0.55473,0.29717 0.648127,0.55473 0.648127,1.68683 0,0.3736 -0.06509,0.68209 -0.0651,0.3085 -0.200948,0.55756 -0.135852,0.24624 -0.348121,0.44152 -0.166985,0.15001 -0.365103,0.24057 -0.198118,0.0906 -0.427368,0.12737 -0.22642,0.0368 -0.512276,0.0368 h -1.095307 q -0.229251,0 -0.345291,-0.0679 -0.11604,-0.0707 -0.152833,-0.19528 -0.03396,-0.12737 -0.03396,-0.32831 v -3.04252 q 0,-0.27171 0.1217,-0.39341 0.121701,-0.1217 0.393405,-0.1217 z m 0.325479,0.66511 v 2.8161 h 0.636807 q 0.209439,0 0.328309,-0.0113 0.118871,-0.0113 0.246232,-0.0566 0.127362,-0.0453 0.22076,-0.12736 0.421707,-0.35661 0.421707,-1.22833 0,-0.61416 -0.186796,-0.91983 -0.183967,-0.30567 -0.455671,-0.38774 -0.271704,-0.0849 -0.656618,-0.0849 z"
         style="font-style:normal;font-variant:normal;font-weight:normal;font-stretch:normal;font-size:5.7963562px;font-family:'Arial Rounded MT Bold';-inkscape-font-specification:'Arial Rounded MT Bold, Normal';font-variant-ligatures:normal;font-variant-caps:normal;font-variant-numeric:normal;font-feature-settings:normal;text-align:start;writing-mode:lr-tb;text-anchor:start;fill:#333333;stroke-width:0.14490892"
         id="path910" />
      <path
         d="m 57.46167,284.14058 h -1.511355 q 0.0028,0.26322 0.10472,0.46416 0.104719,0.20095 0.274534,0.30284 0.172646,0.10189 0.379254,0.10189 0.138682,0 0.251892,-0.0311 0.116041,-0.034 0.22359,-0.10189 0.10755,-0.0708 0.198118,-0.15001 0.09057,-0.0792 0.234911,-0.21509 0.05944,-0.051 0.169815,-0.051 0.118871,0 0.192457,0.0651 0.07359,0.0651 0.07359,0.18396 0,0.10472 -0.08208,0.24623 -0.08208,0.13869 -0.249062,0.26888 -0.164154,0.12736 -0.416047,0.21227 -0.249062,0.0849 -0.574541,0.0849 -0.744356,0 -1.157573,-0.42454 -0.413217,-0.42454 -0.413217,-1.15192 0,-0.34246 0.101889,-0.63397 0.101889,-0.29435 0.297177,-0.50379 0.195287,-0.20944 0.481143,-0.31982 0.285855,-0.11321 0.633976,-0.11321 0.45284,0 0.775489,0.19246 0.325479,0.18963 0.486803,0.49247 0.161325,0.30283 0.161325,0.61699 0,0.29152 -0.166985,0.37925 -0.166985,0.0849 -0.469822,0.0849 z m -1.511355,-0.43869 h 1.400975 q -0.0283,-0.39623 -0.215099,-0.59152 -0.183966,-0.19812 -0.486803,-0.19812 -0.288686,0 -0.475483,0.20095 -0.183966,0.19812 -0.22359,0.58869 z m 0.792471,-2.43118 h 0.382084 q 0.144343,0 0.144343,0.0424 0,0.0226 -0.158494,0.18397 -0.158494,0.16132 -0.319819,0.30849 -0.161324,0.14718 -0.22359,0.17831 -0.161324,0.0821 -0.34529,0.0821 -0.121701,0 -0.121701,-0.0708 0,-0.0481 0.07359,-0.16698 l 0.127362,-0.23775 q 0.11038,-0.2066 0.192457,-0.26321 0.08208,-0.0566 0.249062,-0.0566 z"
         style="font-style:normal;font-variant:normal;font-weight:normal;font-stretch:normal;font-size:5.7963562px;font-family:'Arial Rounded MT Bold';-inkscape-font-specification:'Arial Rounded MT Bold, Normal';font-variant-ligatures:normal;font-variant-caps:normal;font-variant-numeric:normal;font-feature-settings:normal;text-align:start;writing-mode:lr-tb;text-anchor:start;fill:#333333;stroke-width:0.14490892"
         id="path912" />
      <path
         d="m 59.292843,282.86131 0.625486,1.75475 0.6736,-1.83117 q 0.07925,-0.22076 0.155664,-0.31133 0.07642,-0.0934 0.23208,-0.0934 0.147173,0 0.249063,0.099 0.104719,0.0991 0.104719,0.22925 0,0.051 -0.01981,0.11888 -0.01698,0.0679 -0.04245,0.12736 -0.02264,0.0594 -0.05377,0.13585 l -0.741527,1.83966 q -0.03113,0.0793 -0.08208,0.20095 -0.04811,0.1217 -0.11038,0.20944 -0.05944,0.0849 -0.150003,0.13302 -0.08774,0.0481 -0.215099,0.0481 -0.164155,0 -0.263214,-0.0736 -0.09623,-0.0764 -0.144342,-0.16416 -0.04528,-0.0906 -0.155664,-0.35378 l -0.735866,-1.81985 q -0.02547,-0.0679 -0.05377,-0.13585 -0.02547,-0.0679 -0.04528,-0.13868 -0.01698,-0.0708 -0.01698,-0.1217 0,-0.0793 0.04811,-0.15567 0.04811,-0.0793 0.133022,-0.12736 0.08491,-0.0509 0.183966,-0.0509 0.192457,0 0.263214,0.11038 0.07359,0.11037 0.161324,0.37076 z"
         style="font-style:normal;font-variant:normal;font-weight:normal;font-stretch:normal;font-size:5.7963562px;font-family:'Arial Rounded MT Bold';-inkscape-font-specification:'Arial Rounded MT Bold, Normal';font-variant-ligatures:normal;font-variant-caps:normal;font-variant-numeric:normal;font-feature-settings:normal;text-align:start;writing-mode:lr-tb;text-anchor:start;fill:#333333;stroke-width:0.14490892"
         id="path914" />
      <path
         d="m 63.97691,284.14058 h -1.511355 q 0.0028,0.26322 0.10472,0.46416 0.104719,0.20095 0.274534,0.30284 0.172645,0.10189 0.379254,0.10189 0.138682,0 0.251892,-0.0311 0.11604,-0.034 0.22359,-0.10189 0.10755,-0.0708 0.198118,-0.15001 0.09057,-0.0792 0.234911,-0.21509 0.05943,-0.051 0.169815,-0.051 0.11887,0 0.192457,0.0651 0.07359,0.0651 0.07359,0.18396 0,0.10472 -0.08208,0.24623 -0.08208,0.13869 -0.249062,0.26888 -0.164155,0.12736 -0.416047,0.21227 -0.249062,0.0849 -0.574541,0.0849 -0.744357,0 -1.157573,-0.42454 -0.413217,-0.42454 -0.413217,-1.15192 0,-0.34246 0.101889,-0.63397 0.101889,-0.29435 0.297176,-0.50379 0.195288,-0.20944 0.481143,-0.31982 0.285856,-0.11321 0.633977,-0.11321 0.45284,0 0.775489,0.19246 0.325479,0.18963 0.486803,0.49247 0.161324,0.30283 0.161324,0.61699 0,0.29152 -0.166984,0.37925 -0.166985,0.0849 -0.469822,0.0849 z m -1.511355,-0.43869 h 1.400975 q -0.0283,-0.39623 -0.215099,-0.59152 -0.183967,-0.19812 -0.486804,-0.19812 -0.288685,0 -0.475482,0.20095 -0.183966,0.19812 -0.22359,0.58869 z"
         style="font-style:normal;font-variant:normal;font-weight:normal;font-stretch:normal;font-size:5.7963562px;font-family:'Arial Rounded MT Bold';-inkscape-font-specification:'Arial Rounded MT Bold, Normal';font-variant-ligatures:normal;font-variant-caps:normal;font-variant-numeric:normal;font-feature-settings:normal;text-align:start;writing-mode:lr-tb;text-anchor:start;fill:#333333;stroke-width:0.14490892"
         id="path916" />
      <path
         d="m 65.267504,285.05192 v -3.35102 q 0,-0.23208 0.101889,-0.35095 0.10472,-0.11887 0.280195,-0.11887 0.175476,0 0.283025,0.11887 0.10755,0.11604 0.10755,0.35095 v 3.35102 q 0,0.23491 -0.11038,0.35378 -0.107549,0.11605 -0.280195,0.11605 -0.169815,0 -0.277364,-0.12171 -0.10472,-0.1217 -0.10472,-0.34812 z"
         style="font-style:normal;font-variant:normal;font-weight:normal;font-stretch:normal;font-size:5.7963562px;font-family:'Arial Rounded MT Bold';-inkscape-font-specification:'Arial Rounded MT Bold, Normal';font-variant-ligatures:normal;font-variant-caps:normal;font-variant-numeric:normal;font-feature-settings:normal;text-align:start;writing-mode:lr-tb;text-anchor:start;fill:#333333;stroke-width:0.14490892"
         id="path918" />
      <path
         d="m 69.733642,283.95096 q 0,0.34529 -0.10755,0.6368 -0.107549,0.29152 -0.311328,0.50096 -0.203778,0.20944 -0.486803,0.32265 -0.283025,0.11038 -0.636807,0.11038 -0.350951,0 -0.631146,-0.11322 -0.280195,-0.11321 -0.486803,-0.32264 -0.203778,-0.21227 -0.311328,-0.49813 -0.104719,-0.28868 -0.104719,-0.6368 0,-0.35096 0.107549,-0.64247 0.10755,-0.29152 0.308498,-0.49813 0.200948,-0.2066 0.486803,-0.31698 0.285856,-0.11321 0.631146,-0.11321 0.350952,0 0.636807,0.11321 0.285855,0.11321 0.489634,0.32264 0.203778,0.20944 0.308497,0.49813 0.10755,0.28868 0.10755,0.63681 z m -0.775489,0 q 0,-0.47266 -0.209439,-0.73587 -0.206608,-0.26321 -0.55756,-0.26321 -0.22642,0 -0.399065,0.11887 -0.172646,0.11604 -0.266044,0.34529 -0.0934,0.22925 -0.0934,0.53492 0,0.30283 0.09057,0.52925 0.0934,0.22642 0.263213,0.34812 0.172646,0.11887 0.404726,0.11887 0.350952,0 0.55756,-0.26321 0.209439,-0.26604 0.209439,-0.73303 z"
         style="font-style:normal;font-variant:normal;font-weight:normal;font-stretch:normal;font-size:5.7963562px;font-family:'Arial Rounded MT Bold';-inkscape-font-specification:'Arial Rounded MT Bold, Normal';font-variant-ligatures:normal;font-variant-caps:normal;font-variant-numeric:normal;font-feature-settings:normal;text-align:start;writing-mode:lr-tb;text-anchor:start;fill:#333333;stroke-width:0.14490892"
         id="path920" />
      <path
         d="m 71.052539,282.81319 v 0.0934 q 0.21793,-0.26887 0.452841,-0.3934 0.234911,-0.12736 0.532087,-0.12736 0.356612,0 0.656619,0.18396 0.300006,0.18397 0.472652,0.53775 0.175475,0.35378 0.175475,0.83775 0,0.35662 -0.101889,0.65662 -0.09906,0.29718 -0.274534,0.50096 -0.175476,0.20095 -0.416047,0.31133 -0.237741,0.10755 -0.512276,0.10755 -0.331139,0 -0.557559,-0.13303 -0.22359,-0.13302 -0.427369,-0.39057 v 1.1604 q 0,0.50945 -0.370763,0.50945 -0.217929,0 -0.288685,-0.13302 -0.07076,-0.1302 -0.07076,-0.38209 v -3.33404 q 0,-0.22076 0.09623,-0.3283 0.09623,-0.11038 0.263213,-0.11038 0.164155,0 0.266044,0.11321 0.104719,0.11038 0.104719,0.31981 z m 1.514185,1.12361 q 0,-0.30566 -0.0934,-0.52359 -0.0934,-0.22076 -0.260383,-0.3368 -0.164155,-0.11887 -0.365103,-0.11887 -0.319818,0 -0.540578,0.25189 -0.217929,0.25189 -0.217929,0.74153 0,0.46133 0.217929,0.71888 0.21793,0.25472 0.540578,0.25472 0.192457,0 0.356612,-0.11038 0.164155,-0.11321 0.263213,-0.3368 0.09906,-0.22359 0.09906,-0.54058 z"
         style="font-style:normal;font-variant:normal;font-weight:normal;font-stretch:normal;font-size:5.7963562px;font-family:'Arial Rounded MT Bold';-inkscape-font-specification:'Arial Rounded MT Bold, Normal';font-variant-ligatures:normal;font-variant-caps:normal;font-variant-numeric:normal;font-feature-settings:normal;text-align:start;writing-mode:lr-tb;text-anchor:start;fill:#333333;stroke-width:0.14490892"
         id="path922" />
      <path
         d="m 74.675262,282.81319 v 0.0934 q 0.217929,-0.26887 0.45284,-0.3934 0.234911,-0.12736 0.532088,-0.12736 0.356612,0 0.656618,0.18396 0.300007,0.18397 0.472652,0.53775 0.175476,0.35378 0.175476,0.83775 0,0.35662 -0.101889,0.65662 -0.09906,0.29718 -0.274535,0.50096 -0.175475,0.20095 -0.416047,0.31133 -0.237741,0.10755 -0.512275,0.10755 -0.33114,0 -0.55756,-0.13303 -0.22359,-0.13302 -0.427368,-0.39057 v 1.1604 q 0,0.50945 -0.370763,0.50945 -0.217929,0 -0.288686,-0.13302 -0.07076,-0.1302 -0.07076,-0.38209 v -3.33404 q 0,-0.22076 0.09623,-0.3283 0.09623,-0.11038 0.263213,-0.11038 0.164155,0 0.266044,0.11321 0.104719,0.11038 0.104719,0.31981 z m 1.514185,1.12361 q 0,-0.30566 -0.0934,-0.52359 -0.0934,-0.22076 -0.260384,-0.3368 -0.164154,-0.11887 -0.365102,-0.11887 -0.319819,0 -0.540578,0.25189 -0.21793,0.25189 -0.21793,0.74153 0,0.46133 0.21793,0.71888 0.217929,0.25472 0.540578,0.25472 0.192457,0 0.356612,-0.11038 0.164154,-0.11321 0.263213,-0.3368 0.09906,-0.22359 0.09906,-0.54058 z"
         style="font-style:normal;font-variant:normal;font-weight:normal;font-stretch:normal;font-size:5.7963562px;font-family:'Arial Rounded MT Bold';-inkscape-font-specification:'Arial Rounded MT Bold, Normal';font-variant-ligatures:normal;font-variant-caps:normal;font-variant-numeric:normal;font-feature-settings:normal;text-align:start;writing-mode:lr-tb;text-anchor:start;fill:#333333;stroke-width:0.14490892"
         id="path924" />
      <path
         d="m 79.741413,284.14058 h -1.511354 q 0.0028,0.26322 0.104719,0.46416 0.104719,0.20095 0.274534,0.30284 0.172646,0.10189 0.379254,0.10189 0.138683,0 0.251893,-0.0311 0.11604,-0.034 0.22359,-0.10189 0.107549,-0.0708 0.198117,-0.15001 0.09057,-0.0792 0.234911,-0.21509 0.05944,-0.051 0.169815,-0.051 0.118871,0 0.192457,0.0651 0.07359,0.0651 0.07359,0.18396 0,0.10472 -0.08208,0.24623 -0.08208,0.13869 -0.249063,0.26888 -0.164154,0.12736 -0.416047,0.21227 -0.249062,0.0849 -0.574541,0.0849 -0.744356,0 -1.157573,-0.42454 -0.413217,-0.42454 -0.413217,-1.15192 0,-0.34246 0.101889,-0.63397 0.101889,-0.29435 0.297177,-0.50379 0.195287,-0.20944 0.481143,-0.31982 0.285855,-0.11321 0.633976,-0.11321 0.452841,0 0.775489,0.19246 0.325479,0.18963 0.486804,0.49247 0.161324,0.30283 0.161324,0.61699 0,0.29152 -0.166985,0.37925 -0.166985,0.0849 -0.469822,0.0849 z m -1.511354,-0.43869 h 1.400974 q -0.0283,-0.39623 -0.215099,-0.59152 -0.183966,-0.19812 -0.486803,-0.19812 -0.288686,0 -0.475482,0.20095 -0.183967,0.19812 -0.22359,0.58869 z"
         style="font-style:normal;font-variant:normal;font-weight:normal;font-stretch:normal;font-size:5.7963562px;font-family:'Arial Rounded MT Bold';-inkscape-font-specification:'Arial Rounded MT Bold, Normal';font-variant-ligatures:normal;font-variant-caps:normal;font-variant-numeric:normal;font-feature-settings:normal;text-align:start;writing-mode:lr-tb;text-anchor:start;fill:#333333;stroke-width:0.14490892"
         id="path926" />
      <path
         d="m 83.032995,285.08589 v -0.0991 q -0.138682,0.17547 -0.291516,0.29434 -0.152833,0.11887 -0.333969,0.17548 -0.181136,0.0594 -0.413217,0.0594 -0.280195,0 -0.503785,-0.11604 -0.22076,-0.11604 -0.34246,-0.31981 -0.144343,-0.24624 -0.144343,-0.70757 v -1.53116 q 0,-0.23208 0.104719,-0.34529 0.104719,-0.11604 0.277365,-0.11604 0.175475,0 0.283025,0.11604 0.10755,0.11604 0.10755,0.34529 v 1.23682 q 0,0.26887 0.04528,0.45284 0.04528,0.18113 0.161324,0.28585 0.118871,0.10189 0.319818,0.10189 0.195288,0 0.367933,-0.11604 0.172646,-0.11604 0.251893,-0.30284 0.06509,-0.16415 0.06509,-0.71888 v -0.93964 q 0,-0.22925 0.10755,-0.34529 0.10755,-0.11604 0.280195,-0.11604 0.172645,0 0.277365,0.11604 0.104719,0.11321 0.104719,0.34529 v 2.23873 q 0,0.22076 -0.101889,0.33114 -0.09906,0.11038 -0.257553,0.11038 -0.158494,0 -0.263213,-0.11322 -0.10189,-0.11604 -0.10189,-0.32264 z"
         style="font-style:normal;font-variant:normal;font-weight:normal;font-stretch:normal;font-size:5.7963562px;font-family:'Arial Rounded MT Bold';-inkscape-font-specification:'Arial Rounded MT Bold, Normal';font-variant-ligatures:normal;font-variant-caps:normal;font-variant-numeric:normal;font-feature-settings:normal;text-align:start;writing-mode:lr-tb;text-anchor:start;fill:#333333;stroke-width:0.14490892"
         id="path928" />
      <path
         d="m 85.291537,284.40663 v 0.64529 q 0,0.23491 -0.11038,0.35378 -0.11038,0.11605 -0.280195,0.11605 -0.166985,0 -0.274534,-0.11888 -0.10755,-0.11887 -0.10755,-0.35095 v -2.15099 q 0,-0.52076 0.376424,-0.52076 0.192457,0 0.277364,0.1217 0.08491,0.1217 0.0934,0.35944 0.138682,-0.23774 0.283025,-0.35944 0.147173,-0.1217 0.390575,-0.1217 0.243401,0 0.472652,0.1217 0.22925,0.1217 0.22925,0.32264 0,0.14152 -0.09906,0.23492 -0.09623,0.0906 -0.209438,0.0906 -0.04245,0 -0.206609,-0.0509 -0.161324,-0.0538 -0.285855,-0.0538 -0.169815,0 -0.277365,0.0906 -0.10755,0.0877 -0.166985,0.26322 -0.05943,0.17547 -0.08208,0.41887 -0.02264,0.24057 -0.02264,0.5887 z"
         style="font-style:normal;font-variant:normal;font-weight:normal;font-stretch:normal;font-size:5.7963562px;font-family:'Arial Rounded MT Bold';-inkscape-font-specification:'Arial Rounded MT Bold, Normal';font-variant-ligatures:normal;font-variant-caps:normal;font-variant-numeric:normal;font-feature-settings:normal;text-align:start;writing-mode:lr-tb;text-anchor:start;fill:#333333;stroke-width:0.14490892"
         id="path930" />
      <path
         d="m 86.848177,285.52175 q -0.175475,0 -0.302837,-0.11322 -0.127361,-0.11321 -0.127361,-0.31698 0,-0.17265 0.121701,-0.29718 0.121701,-0.12453 0.300007,-0.12453 0.178306,0 0.302837,0.12453 0.127361,0.1217 0.127361,0.29718 0,0.20094 -0.127361,0.31698 -0.124531,0.11322 -0.294347,0.11322 z"
         style="font-style:normal;font-variant:normal;font-weight:normal;font-stretch:normal;font-size:5.7963562px;font-family:'Arial Rounded MT Bold';-inkscape-font-specification:'Arial Rounded MT Bold, Normal';font-variant-ligatures:normal;font-variant-caps:normal;font-variant-numeric:normal;font-feature-settings:normal;text-align:start;writing-mode:lr-tb;text-anchor:start;fill:#333333;stroke-width:0.14490892"
         id="path932" />
      <path
         d="m 90.691658,281.80562 -0.792471,3.26328 q -0.03962,0.16133 -0.07076,0.25473 -0.0283,0.0934 -0.09057,0.14434 -0.05944,0.0538 -0.175476,0.0538 -0.288685,0 -0.288685,-0.24907 0,-0.0651 0.05661,-0.32548 l 0.78964,-3.26328 q 0.06227,-0.26038 0.11887,-0.35661 0.05661,-0.0962 0.22076,-0.0962 0.141513,0 0.215099,0.0679 0.07642,0.0679 0.07642,0.1868 0,0.0877 -0.05943,0.31981 z"
         style="font-style:normal;font-variant:normal;font-weight:normal;font-stretch:normal;font-size:5.7963562px;font-family:'Arial Rounded MT Bold';-inkscape-font-specification:'Arial Rounded MT Bold, Normal';font-variant-ligatures:normal;font-variant-caps:normal;font-variant-numeric:normal;font-feature-settings:normal;text-align:start;writing-mode:lr-tb;text-anchor:start;fill:#333333;stroke-width:0.14490892"
         id="path934" />
      <path
         d="m 93.940788,283.74152 -2.847233,1.23965 v -0.80096 l 1.989667,-0.78115 -1.989667,-0.76983 v -0.7953 l 2.847233,1.22833 z"
         style="font-style:normal;font-variant:normal;font-weight:normal;font-stretch:normal;font-size:5.7963562px;font-family:'Arial Rounded MT Bold';-inkscape-font-specification:'Arial Rounded MT Bold, Normal';font-variant-ligatures:normal;font-variant-caps:normal;font-variant-numeric:normal;font-feature-settings:normal;text-align:start;writing-mode:lr-tb;text-anchor:start;fill:#333333;stroke-width:0.14490892"
         id="path936" />
    </g>
    <g
       aria-label="Vincent Beaulieu"
       style="font-style:normal;font-weight:normal;font-size:10.58333302px;line-height:-232.61083984;font-family:sans-serif;letter-spacing:0px;word-spacing:0px;fill:url(#radialGradient2716);fill-opacity:1;stroke:none;stroke-width:0.26458332"
       id="text2688">
      <path
         d="m 10.098777,270.54205 1.715658,5.0798 1.720825,-5.11597 q 0.134358,-0.40308 0.201538,-0.55811 0.06718,-0.16019 0.222208,-0.28422 0.15503,-0.12919 0.423747,-0.12919 0.196371,0 0.361735,0.0982 0.170532,0.0982 0.26355,0.26355 0.09818,0.16019 0.09818,0.32556 0,0.11369 -0.03101,0.24805 -0.03101,0.12919 -0.07751,0.25838 -0.04651,0.12402 -0.09302,0.25838 l -1.834513,4.9506 q -0.09818,0.28422 -0.196371,0.54261 -0.09819,0.25321 -0.227376,0.44958 -0.129191,0.1912 -0.346232,0.31523 -0.211873,0.12402 -0.521932,0.12402 -0.310059,0 -0.5271,-0.12402 -0.211873,-0.11886 -0.346232,-0.31523 -0.129191,-0.20154 -0.227376,-0.45475 -0.09818,-0.25322 -0.19637,-0.53744 l -1.8035078,-4.90926 q -0.046509,-0.13436 -0.098185,-0.26355 -0.046509,-0.12919 -0.082682,-0.27905 -0.031006,-0.14986 -0.031006,-0.25322 0,-0.26354 0.2118733,-0.48059 0.2118734,-0.21704 0.5322673,-0.21704 0.3927408,0 0.5529378,0.24288 0.1653646,0.23771 0.3358967,0.76481 z"
         style="font-style:normal;font-variant:normal;font-weight:normal;font-stretch:normal;font-size:10.58333302px;font-family:'Arial Rounded MT Bold';-inkscape-font-specification:'Arial Rounded MT Bold, Normal';font-variant-ligatures:normal;font-variant-caps:normal;font-variant-numeric:normal;font-feature-settings:normal;text-align:start;writing-mode:lr-tb;text-anchor:start;fill:url(#radialGradient2716);fill-opacity:1;stroke-width:0.26458332"
         id="path877" />
      <path
         d="m 17.431662,272.43341 v 4.07727 q 0,0.42375 -0.201538,0.64079 -0.201538,0.21704 -0.511596,0.21704 -0.310059,0 -0.506429,-0.22221 -0.191203,-0.22221 -0.191203,-0.63562 v -4.03593 q 0,-0.41858 0.191203,-0.63045 0.19637,-0.21187 0.506429,-0.21187 0.310058,0 0.511596,0.21187 0.201538,0.21187 0.201538,0.58911 z m -0.697631,-1.45727 q -0.294556,0 -0.506429,-0.18087 -0.206706,-0.18087 -0.206706,-0.5116 0,-0.29972 0.211873,-0.49092 0.217041,-0.19638 0.501262,-0.19638 0.273885,0 0.485758,0.1757 0.211873,0.1757 0.211873,0.5116 0,0.32556 -0.206705,0.5116 -0.206706,0.18087 -0.490926,0.18087 z"
         style="font-style:normal;font-variant:normal;font-weight:normal;font-stretch:normal;font-size:10.58333302px;font-family:'Arial Rounded MT Bold';-inkscape-font-specification:'Arial Rounded MT Bold, Normal';font-variant-ligatures:normal;font-variant-caps:normal;font-variant-numeric:normal;font-feature-settings:normal;text-align:start;writing-mode:lr-tb;text-anchor:start;fill:url(#radialGradient2716);fill-opacity:1;stroke-width:0.26458332"
         id="path879" />
      <path
         d="m 20.186016,272.41274 v 0.17053 q 0.372071,-0.49092 0.81132,-0.7183 0.444418,-0.23254 1.018026,-0.23254 0.558105,0 0.997355,0.24288 0.43925,0.24287 0.656291,0.68729 0.139526,0.25838 0.180867,0.55811 0.04134,0.29972 0.04134,0.76481 v 2.62516 q 0,0.42375 -0.19637,0.64079 -0.191203,0.21704 -0.501261,0.21704 -0.315227,0 -0.511597,-0.22221 -0.19637,-0.22221 -0.19637,-0.63562 v -2.35128 q 0,-0.69763 -0.196371,-1.06453 -0.191203,-0.37207 -0.769979,-0.37207 -0.377238,0 -0.687296,0.22738 -0.310059,0.2222 -0.454753,0.61494 -0.103353,0.31523 -0.103353,1.17823 v 1.76733 q 0,0.42892 -0.201538,0.64596 -0.19637,0.21187 -0.511596,0.21187 -0.304891,0 -0.501262,-0.22221 -0.19637,-0.22221 -0.19637,-0.63562 v -4.07727 q 0,-0.40308 0.1757,-0.59945 0.175699,-0.20153 0.48059,-0.20153 0.186036,0 0.335897,0.0879 0.149862,0.0879 0.237712,0.26355 0.09302,0.1757 0.09302,0.42891 z"
         style="font-style:normal;font-variant:normal;font-weight:normal;font-stretch:normal;font-size:10.58333302px;font-family:'Arial Rounded MT Bold';-inkscape-font-specification:'Arial Rounded MT Bold, Normal';font-variant-ligatures:normal;font-variant-caps:normal;font-variant-numeric:normal;font-feature-settings:normal;text-align:start;writing-mode:lr-tb;text-anchor:start;fill:url(#radialGradient2716);fill-opacity:1;stroke-width:0.26458332"
         id="path881" />
      <path
         d="m 30.35077,275.62185 q 0,0.26355 -0.160197,0.56327 -0.15503,0.29972 -0.480591,0.57361 -0.320394,0.26872 -0.81132,0.43408 -0.490926,0.16536 -1.105876,0.16536 -1.307414,0 -2.041219,-0.75964 -0.733805,-0.76481 -0.733805,-2.04639 0,-0.86816 0.335897,-1.53479 0.335896,-0.66662 0.971517,-1.02836 0.63562,-0.3669 1.519287,-0.3669 0.54777,0 1.002522,0.1602 0.459921,0.16019 0.775147,0.41341 0.320394,0.25321 0.485758,0.5426 0.170533,0.28422 0.170533,0.53227 0,0.25321 -0.191203,0.42891 -0.186035,0.1757 -0.454753,0.1757 -0.1757,0 -0.294556,-0.0879 -0.113688,-0.093 -0.258382,-0.29455 -0.258382,-0.39274 -0.542602,-0.58911 -0.279053,-0.19637 -0.713135,-0.19637 -0.625285,0 -1.00769,0.49092 -0.382406,0.48576 -0.382406,1.33325 0,0.39791 0.09818,0.73381 0.09819,0.33073 0.284221,0.56844 0.186035,0.23254 0.449585,0.35657 0.263549,0.11885 0.578776,0.11885 0.423746,0 0.72347,-0.19637 0.304891,-0.19637 0.537435,-0.59944 0.129191,-0.23772 0.279052,-0.37207 0.149862,-0.13436 0.366903,-0.13436 0.258382,0 0.428914,0.19637 0.170533,0.19637 0.170533,0.41858 z"
         style="font-style:normal;font-variant:normal;font-weight:normal;font-stretch:normal;font-size:10.58333302px;font-family:'Arial Rounded MT Bold';-inkscape-font-specification:'Arial Rounded MT Bold, Normal';font-variant-ligatures:normal;font-variant-caps:normal;font-variant-numeric:normal;font-feature-settings:normal;text-align:start;writing-mode:lr-tb;text-anchor:start;fill:url(#radialGradient2716);fill-opacity:1;stroke-width:0.26458332"
         id="path883" />
      <path
         d="m 35.513246,274.8467 h -2.759521 q 0.0052,0.48059 0.191203,0.84749 0.191203,0.36691 0.501261,0.55294 0.315226,0.18604 0.692464,0.18604 0.253215,0 0.459921,-0.0568 0.211873,-0.062 0.408243,-0.18603 0.196371,-0.12919 0.361735,-0.27389 0.165365,-0.14469 0.428915,-0.39274 0.10852,-0.093 0.310058,-0.093 0.217041,0 0.3514,0.11886 0.134359,0.11886 0.134359,0.3359 0,0.1912 -0.149862,0.44958 -0.149861,0.25322 -0.454752,0.49093 -0.299724,0.23254 -0.759644,0.38757 -0.454753,0.15503 -1.049032,0.15503 -1.35909,0 -2.113566,-0.77515 -0.754475,-0.77514 -0.754475,-2.10323 0,-0.62528 0.186035,-1.15755 0.186035,-0.53743 0.542602,-0.91984 0.356568,-0.38241 0.8785,-0.58394 0.521932,-0.20671 1.157552,-0.20671 0.826823,0 1.415934,0.3514 0.594279,0.34623 0.888834,0.89917 0.294556,0.55294 0.294556,1.12655 0,0.53226 -0.304891,0.69246 -0.304891,0.15503 -0.857829,0.15503 z m -2.759521,-0.80098 h 2.557983 q -0.05168,-0.72347 -0.392741,-1.08004 -0.335896,-0.36174 -0.888834,-0.36174 -0.5271,0 -0.868164,0.36691 -0.335897,0.36173 -0.408244,1.07487 z"
         style="font-style:normal;font-variant:normal;font-weight:normal;font-stretch:normal;font-size:10.58333302px;font-family:'Arial Rounded MT Bold';-inkscape-font-specification:'Arial Rounded MT Bold, Normal';font-variant-ligatures:normal;font-variant-caps:normal;font-variant-numeric:normal;font-feature-settings:normal;text-align:start;writing-mode:lr-tb;text-anchor:start;fill:url(#radialGradient2716);fill-opacity:1;stroke-width:0.26458332"
         id="path885" />
      <path
         d="m 39.140931,272.41274 v 0.17053 q 0.372071,-0.49092 0.81132,-0.7183 0.444418,-0.23254 1.018026,-0.23254 0.558105,0 0.997355,0.24288 0.43925,0.24287 0.656291,0.68729 0.139526,0.25838 0.180867,0.55811 0.04134,0.29972 0.04134,0.76481 v 2.62516 q 0,0.42375 -0.19637,0.64079 -0.191203,0.21704 -0.501261,0.21704 -0.315227,0 -0.511597,-0.22221 -0.19637,-0.22221 -0.19637,-0.63562 v -2.35128 q 0,-0.69763 -0.196371,-1.06453 -0.191203,-0.37207 -0.769979,-0.37207 -0.377238,0 -0.687296,0.22738 -0.310059,0.2222 -0.454753,0.61494 -0.103353,0.31523 -0.103353,1.17823 v 1.76733 q 0,0.42892 -0.201538,0.64596 -0.19637,0.21187 -0.511596,0.21187 -0.304891,0 -0.501262,-0.22221 -0.19637,-0.22221 -0.19637,-0.63562 v -4.07727 q 0,-0.40308 0.1757,-0.59945 0.175699,-0.20153 0.48059,-0.20153 0.186036,0 0.335897,0.0879 0.149862,0.0879 0.237712,0.26355 0.09302,0.1757 0.09302,0.42891 z"
         style="font-style:normal;font-variant:normal;font-weight:normal;font-stretch:normal;font-size:10.58333302px;font-family:'Arial Rounded MT Bold';-inkscape-font-specification:'Arial Rounded MT Bold, Normal';font-variant-ligatures:normal;font-variant-caps:normal;font-variant-numeric:normal;font-feature-settings:normal;text-align:start;writing-mode:lr-tb;text-anchor:start;fill:url(#radialGradient2716);fill-opacity:1;stroke-width:0.26458332"
         id="path887" />
      <path
         d="m 44.324076,271.75645 h 0.155029 v -0.84749 q 0,-0.34107 0.0155,-0.53227 0.02067,-0.19637 0.103353,-0.3359 0.08268,-0.14469 0.237711,-0.23254 0.15503,-0.093 0.346232,-0.093 0.268718,0 0.485759,0.20154 0.144694,0.13436 0.180867,0.33073 0.04134,0.1912 0.04134,0.54777 v 0.96118 h 0.516764 q 0.299723,0 0.454752,0.14469 0.160197,0.13953 0.160197,0.36174 0,0.28422 -0.227376,0.39791 -0.222209,0.11369 -0.640788,0.11369 h -0.263549 v 2.59415 q 0,0.33073 0.02067,0.5116 0.02584,0.1757 0.124024,0.28939 0.103352,0.10852 0.330729,0.10852 0.124023,0 0.335896,-0.0413 0.211874,-0.0465 0.33073,-0.0465 0.170532,0 0.304891,0.13952 0.139526,0.13436 0.139526,0.3359 0,0.34106 -0.37207,0.52193 -0.372071,0.18087 -1.069702,0.18087 -0.661459,0 -1.002523,-0.22221 -0.341065,-0.22221 -0.449585,-0.61495 -0.103353,-0.39274 -0.103353,-1.04903 v -2.70784 H 44.29307 q -0.304891,0 -0.465088,-0.1447 -0.160197,-0.14469 -0.160197,-0.3669 0,-0.22221 0.165365,-0.36174 0.170532,-0.14469 0.490926,-0.14469 z"
         style="font-style:normal;font-variant:normal;font-weight:normal;font-stretch:normal;font-size:10.58333302px;font-family:'Arial Rounded MT Bold';-inkscape-font-specification:'Arial Rounded MT Bold, Normal';font-variant-ligatures:normal;font-variant-caps:normal;font-variant-numeric:normal;font-feature-settings:normal;text-align:start;writing-mode:lr-tb;text-anchor:start;fill:url(#radialGradient2716);fill-opacity:1;stroke-width:0.26458332"
         id="path889" />
      <path
         d="m 53.966898,277.23932 h -2.315104 q -0.501262,0 -0.718303,-0.22221 -0.211873,-0.22738 -0.211873,-0.7183 v -5.69474 q 0,-0.50127 0.217041,-0.71831 0.222209,-0.22221 0.713135,-0.22221 h 2.45463 q 0.542603,0 0.940511,0.0672 0.397909,0.0672 0.713135,0.25839 0.268717,0.16019 0.475423,0.40824 0.206706,0.24288 0.315226,0.5426 0.108521,0.29456 0.108521,0.62529 0,1.13688 -1.136882,1.66398 1.493449,0.47542 1.493449,1.85001 0,0.63562 -0.325561,1.14722 -0.325562,0.50643 -0.8785,0.74931 -0.346232,0.14469 -0.795817,0.2067 -0.449585,0.0568 -1.049031,0.0568 z m -0.113688,-3.36414 h -1.596802 v 2.21175 h 1.648478 q 1.555461,0 1.555461,-1.12137 0,-0.57361 -0.403076,-0.83199 -0.403077,-0.25839 -1.204061,-0.25839 z m -1.596802,-3.05924 v 1.95854 h 1.405599 q 0.573608,0 0.883667,-0.10853 0.315226,-0.10852 0.480591,-0.41341 0.129191,-0.21704 0.129191,-0.48576 0,-0.5736 -0.408244,-0.75964 -0.408244,-0.1912 -1.245402,-0.1912 z"
         style="font-style:normal;font-variant:normal;font-weight:normal;font-stretch:normal;font-size:10.58333302px;font-family:'Arial Rounded MT Bold';-inkscape-font-specification:'Arial Rounded MT Bold, Normal';font-variant-ligatures:normal;font-variant-caps:normal;font-variant-numeric:normal;font-feature-settings:normal;text-align:start;writing-mode:lr-tb;text-anchor:start;fill:url(#radialGradient2716);fill-opacity:1;stroke-width:0.26458332"
         id="path891" />
      <path
         d="m 62.178285,274.8467 h -2.759521 q 0.0052,0.48059 0.191203,0.84749 0.191203,0.36691 0.501261,0.55294 0.315226,0.18604 0.692464,0.18604 0.253215,0 0.459921,-0.0568 0.211873,-0.062 0.408243,-0.18603 0.196371,-0.12919 0.361735,-0.27389 0.165365,-0.14469 0.428915,-0.39274 0.10852,-0.093 0.310058,-0.093 0.217041,0 0.3514,0.11886 0.134359,0.11886 0.134359,0.3359 0,0.1912 -0.149862,0.44958 -0.149861,0.25322 -0.454752,0.49093 -0.299724,0.23254 -0.759644,0.38757 -0.454753,0.15503 -1.049031,0.15503 -1.359091,0 -2.113566,-0.77515 -0.754476,-0.77514 -0.754476,-2.10323 0,-0.62528 0.186035,-1.15755 0.186035,-0.53743 0.542602,-0.91984 0.356568,-0.38241 0.8785,-0.58394 0.521932,-0.20671 1.157552,-0.20671 0.826823,0 1.415934,0.3514 0.594279,0.34623 0.888834,0.89917 0.294556,0.55294 0.294556,1.12655 0,0.53226 -0.304891,0.69246 -0.304891,0.15503 -0.857829,0.15503 z m -2.759521,-0.80098 h 2.557983 q -0.05168,-0.72347 -0.39274,-1.08004 -0.335897,-0.36174 -0.888835,-0.36174 -0.5271,0 -0.868164,0.36691 -0.335897,0.36173 -0.408244,1.07487 z"
         style="font-style:normal;font-variant:normal;font-weight:normal;font-stretch:normal;font-size:10.58333302px;font-family:'Arial Rounded MT Bold';-inkscape-font-specification:'Arial Rounded MT Bold, Normal';font-variant-ligatures:normal;font-variant-caps:normal;font-variant-numeric:normal;font-feature-settings:normal;text-align:start;writing-mode:lr-tb;text-anchor:start;fill:url(#radialGradient2716);fill-opacity:1;stroke-width:0.26458332"
         id="path893" />
      <path
         d="m 68.090067,276.57269 q -0.511597,0.39791 -0.992188,0.59945 -0.475423,0.19637 -1.069702,0.19637 -0.542602,0 -0.956014,-0.21187 -0.408244,-0.21704 -0.630452,-0.58395 -0.222209,-0.3669 -0.222209,-0.79581 0,-0.57878 0.366903,-0.98702 0.366902,-0.40825 1.00769,-0.54777 0.134359,-0.031 0.666626,-0.13953 0.532267,-0.10852 0.909505,-0.19637 0.382406,-0.093 0.826823,-0.22221 -0.02584,-0.55811 -0.227376,-0.81649 -0.196371,-0.26355 -0.821655,-0.26355 -0.537435,0 -0.81132,0.14986 -0.268718,0.14987 -0.465088,0.44959 -0.191203,0.29972 -0.273885,0.39791 -0.07751,0.093 -0.341065,0.093 -0.237711,0 -0.413411,-0.14987 -0.170532,-0.15503 -0.170532,-0.39274 0,-0.37207 0.263549,-0.72347 0.26355,-0.3514 0.821656,-0.57877 0.558105,-0.22738 1.390096,-0.22738 0.930175,0 1.462443,0.22221 0.532267,0.21704 0.749308,0.69246 0.222209,0.47543 0.222209,1.26091 0,0.49609 -0.0052,0.84232 0,0.34624 -0.0052,0.76998 0,0.39791 0.129191,0.83199 0.134359,0.42892 0.134359,0.55294 0,0.21704 -0.206706,0.39791 -0.201538,0.1757 -0.45992,0.1757 -0.217041,0 -0.428914,-0.20154 -0.211874,-0.2067 -0.449585,-0.59428 z m -0.09302,-2.04122 q -0.310058,0.11369 -0.904337,0.24288 -0.589112,0.12403 -0.816488,0.18604 -0.227376,0.0568 -0.434082,0.23254 -0.206706,0.17053 -0.206706,0.48059 0,0.3204 0.24288,0.54777 0.242879,0.22221 0.63562,0.22221 0.418579,0 0.769978,-0.18087 0.356568,-0.18603 0.521932,-0.47542 0.191203,-0.32039 0.191203,-1.0542 z"
         style="font-style:normal;font-variant:normal;font-weight:normal;font-stretch:normal;font-size:10.58333302px;font-family:'Arial Rounded MT Bold';-inkscape-font-specification:'Arial Rounded MT Bold, Normal';font-variant-ligatures:normal;font-variant-caps:normal;font-variant-numeric:normal;font-feature-settings:normal;text-align:start;writing-mode:lr-tb;text-anchor:start;fill:url(#radialGradient2716);fill-opacity:1;stroke-width:0.26458332"
         id="path895" />
      <path
         d="m 74.472107,276.57269 v -0.18086 q -0.253214,0.32039 -0.532267,0.53743 -0.279053,0.21704 -0.609782,0.32039 -0.330729,0.10852 -0.754476,0.10852 -0.511596,0 -0.91984,-0.21187 -0.403076,-0.21187 -0.625285,-0.58394 -0.26355,-0.44959 -0.26355,-1.29191 v -2.7957 q 0,-0.42374 0.191203,-0.63045 0.191203,-0.21187 0.506429,-0.21187 0.320394,0 0.516764,0.21187 0.196371,0.21187 0.196371,0.63045 v 2.25826 q 0,0.49093 0.08268,0.82682 0.08268,0.33073 0.294556,0.52194 0.217041,0.18603 0.583944,0.18603 0.356567,0 0.671793,-0.21187 0.315226,-0.21187 0.45992,-0.55294 0.118856,-0.29972 0.118856,-1.31258 v -1.71566 q 0,-0.41858 0.196371,-0.63045 0.19637,-0.21187 0.511596,-0.21187 0.315226,0 0.506429,0.21187 0.191203,0.20671 0.191203,0.63045 v 4.08761 q 0,0.40307 -0.186035,0.60461 -0.180868,0.20154 -0.470256,0.20154 -0.289388,0 -0.48059,-0.20671 -0.186036,-0.21187 -0.186036,-0.58911 z"
         style="font-style:normal;font-variant:normal;font-weight:normal;font-stretch:normal;font-size:10.58333302px;font-family:'Arial Rounded MT Bold';-inkscape-font-specification:'Arial Rounded MT Bold, Normal';font-variant-ligatures:normal;font-variant-caps:normal;font-variant-numeric:normal;font-feature-settings:normal;text-align:start;writing-mode:lr-tb;text-anchor:start;fill:url(#radialGradient2716);fill-opacity:1;stroke-width:0.26458332"
         id="path897" />
      <path
         d="m 77.195452,276.51068 v -6.11849 q 0,-0.42374 0.186035,-0.64079 0.191203,-0.21704 0.511597,-0.21704 0.320393,0 0.516764,0.21704 0.19637,0.21188 0.19637,0.64079 v 6.11849 q 0,0.42892 -0.201538,0.64596 -0.19637,0.21187 -0.511596,0.21187 -0.310059,0 -0.506429,-0.22221 -0.191203,-0.22221 -0.191203,-0.63562 z"
         style="font-style:normal;font-variant:normal;font-weight:normal;font-stretch:normal;font-size:10.58333302px;font-family:'Arial Rounded MT Bold';-inkscape-font-specification:'Arial Rounded MT Bold, Normal';font-variant-ligatures:normal;font-variant-caps:normal;font-variant-numeric:normal;font-feature-settings:normal;text-align:start;writing-mode:lr-tb;text-anchor:start;fill:url(#radialGradient2716);fill-opacity:1;stroke-width:0.26458332"
         id="path899" />
      <path
         d="m 81.479433,272.43341 v 4.07727 q 0,0.42375 -0.201538,0.64079 -0.201538,0.21704 -0.511597,0.21704 -0.310058,0 -0.506429,-0.22221 -0.191203,-0.22221 -0.191203,-0.63562 v -4.03593 q 0,-0.41858 0.191203,-0.63045 0.196371,-0.21187 0.506429,-0.21187 0.310059,0 0.511597,0.21187 0.201538,0.21187 0.201538,0.58911 z m -0.697632,-1.45727 q -0.294555,0 -0.506429,-0.18087 -0.206706,-0.18087 -0.206706,-0.5116 0,-0.29972 0.211874,-0.49092 0.217041,-0.19638 0.501261,-0.19638 0.273885,0 0.485759,0.1757 0.211873,0.1757 0.211873,0.5116 0,0.32556 -0.206706,0.5116 -0.206705,0.18087 -0.490926,0.18087 z"
         style="font-style:normal;font-variant:normal;font-weight:normal;font-stretch:normal;font-size:10.58333302px;font-family:'Arial Rounded MT Bold';-inkscape-font-specification:'Arial Rounded MT Bold, Normal';font-variant-ligatures:normal;font-variant-caps:normal;font-variant-numeric:normal;font-feature-settings:normal;text-align:start;writing-mode:lr-tb;text-anchor:start;fill:url(#radialGradient2716);fill-opacity:1;stroke-width:0.26458332"
         id="path901" />
      <path
         d="m 86.879618,274.8467 h -2.759522 q 0.0052,0.48059 0.191203,0.84749 0.191203,0.36691 0.501261,0.55294 0.315227,0.18604 0.692464,0.18604 0.253215,0 0.459921,-0.0568 0.211873,-0.062 0.408244,-0.18603 0.19637,-0.12919 0.361735,-0.27389 0.165364,-0.14469 0.428914,-0.39274 0.10852,-0.093 0.310059,-0.093 0.217041,0 0.351399,0.11886 0.134359,0.11886 0.134359,0.3359 0,0.1912 -0.149862,0.44958 -0.149861,0.25322 -0.454752,0.49093 -0.299724,0.23254 -0.759644,0.38757 -0.454752,0.15503 -1.049031,0.15503 -1.35909,0 -2.113566,-0.77515 -0.754476,-0.77514 -0.754476,-2.10323 0,-0.62528 0.186035,-1.15755 0.186035,-0.53743 0.542602,-0.91984 0.356568,-0.38241 0.8785,-0.58394 0.521932,-0.20671 1.157552,-0.20671 0.826823,0 1.415934,0.3514 0.594279,0.34623 0.888835,0.89917 0.294555,0.55294 0.294555,1.12655 0,0.53226 -0.304891,0.69246 -0.304891,0.15503 -0.857828,0.15503 z m -2.759522,-0.80098 h 2.557983 q -0.05168,-0.72347 -0.39274,-1.08004 -0.335897,-0.36174 -0.888835,-0.36174 -0.5271,0 -0.868164,0.36691 -0.335897,0.36173 -0.408244,1.07487 z"
         style="font-style:normal;font-variant:normal;font-weight:normal;font-stretch:normal;font-size:10.58333302px;font-family:'Arial Rounded MT Bold';-inkscape-font-specification:'Arial Rounded MT Bold, Normal';font-variant-ligatures:normal;font-variant-caps:normal;font-variant-numeric:normal;font-feature-settings:normal;text-align:start;writing-mode:lr-tb;text-anchor:start;fill:url(#radialGradient2716);fill-opacity:1;stroke-width:0.26458332"
         id="path903" />
      <path
         d="m 92.889584,276.57269 v -0.18086 q -0.253214,0.32039 -0.532267,0.53743 -0.279053,0.21704 -0.609782,0.32039 -0.330729,0.10852 -0.754476,0.10852 -0.511597,0 -0.91984,-0.21187 -0.403077,-0.21187 -0.625285,-0.58394 -0.26355,-0.44959 -0.26355,-1.29191 v -2.7957 q 0,-0.42374 0.191203,-0.63045 0.191203,-0.21187 0.506429,-0.21187 0.320394,0 0.516764,0.21187 0.196371,0.21187 0.196371,0.63045 v 2.25826 q 0,0.49093 0.08268,0.82682 0.08268,0.33073 0.294556,0.52194 0.217041,0.18603 0.583943,0.18603 0.356568,0 0.671794,-0.21187 0.315226,-0.21187 0.45992,-0.55294 0.118856,-0.29972 0.118856,-1.31258 v -1.71566 q 0,-0.41858 0.19637,-0.63045 0.196371,-0.21187 0.511597,-0.21187 0.315226,0 0.506429,0.21187 0.191203,0.20671 0.191203,0.63045 v 4.08761 q 0,0.40307 -0.186035,0.60461 -0.180868,0.20154 -0.470256,0.20154 -0.289388,0 -0.480591,-0.20671 -0.186035,-0.21187 -0.186035,-0.58911 z"
         style="font-style:normal;font-variant:normal;font-weight:normal;font-stretch:normal;font-size:10.58333302px;font-family:'Arial Rounded MT Bold';-inkscape-font-specification:'Arial Rounded MT Bold, Normal';font-variant-ligatures:normal;font-variant-caps:normal;font-variant-numeric:normal;font-feature-settings:normal;text-align:start;writing-mode:lr-tb;text-anchor:start;fill:url(#radialGradient2716);fill-opacity:1;stroke-width:0.26458332"
         id="path905" />
    </g>
    <g
       id="g2700"
       transform="translate(-115.52243,20.112459)">
      <g
         id="g2694"
         transform="matrix(1.3551333,0,0,1.3551333,-72.053219,-89.577399)">
        <rect
           style="opacity:1;fill:#000000;fill-opacity:1;stroke:none;stroke-width:0.15048869;stroke-miterlimit:4;stroke-dasharray:none;stroke-dashoffset:0"
           id="rect2690"
           width="12.039095"
           height="12.039095"
           x="209.81676"
           y="250.76378"
           ry="1.5494908" />
        <rect
           style="opacity:1;fill:url(#radialGradient2718);fill-opacity:1;stroke:#1a1a1a;stroke-width:0.15048869;stroke-miterlimit:4;stroke-dasharray:none;stroke-dashoffset:0"
           id="rect2692"
           width="12.039095"
           height="12.039095"
           x="209.2876"
           y="250.23462"
           ry="1.5494908" />
      </g>
      <g
         aria-label="V"
         style="font-style:normal;font-variant:normal;font-weight:normal;font-stretch:normal;font-size:10.35975742px;line-height:1.25;font-family:'Arial Rounded MT Bold';-inkscape-font-specification:'Arial Rounded MT Bold, Normal';font-variant-ligatures:normal;font-variant-caps:normal;font-variant-numeric:normal;font-feature-settings:normal;text-align:start;letter-spacing:0px;word-spacing:0px;writing-mode:lr-tb;text-anchor:start;fill:#333333;fill-opacity:1;stroke:none;stroke-width:0.24276413"
         id="text2698">
        <path
           d="m 215.21417,252.41724 1.67942,4.97248 1.68447,-5.00789 q 0.13152,-0.39456 0.19728,-0.54632 0.0658,-0.15681 0.21752,-0.27821 0.15175,-0.12646 0.41479,-0.12646 0.19222,0 0.35409,0.0961 0.16693,0.0961 0.25799,0.25798 0.0961,0.15681 0.0961,0.31868 0,0.11129 -0.0303,0.24281 -0.0304,0.12646 -0.0759,0.25292 -0.0455,0.12141 -0.091,0.25293 l -1.79576,4.84602 q -0.0961,0.27821 -0.19222,0.53114 -0.0961,0.24786 -0.22258,0.44008 -0.12646,0.18717 -0.33892,0.30857 -0.20739,0.1214 -0.5109,0.1214 -0.30351,0 -0.51597,-0.1214 -0.20739,-0.11634 -0.33891,-0.30857 -0.12647,-0.19728 -0.22258,-0.44514 -0.0961,-0.24787 -0.19222,-0.52608 l -1.76541,-4.80555 q -0.0455,-0.13153 -0.0961,-0.25799 -0.0455,-0.12646 -0.0809,-0.27315 -0.0303,-0.1467 -0.0303,-0.24787 0,-0.25798 0.20739,-0.47044 0.2074,-0.21245 0.52103,-0.21245 0.38444,0 0.54125,0.23774 0.16187,0.23269 0.3288,0.74866 z"
           style="font-style:normal;font-variant:normal;font-weight:normal;font-stretch:normal;font-size:10.35975742px;font-family:'Arial Rounded MT Bold';-inkscape-font-specification:'Arial Rounded MT Bold, Normal';font-variant-ligatures:normal;font-variant-caps:normal;font-variant-numeric:normal;font-feature-settings:normal;text-align:start;writing-mode:lr-tb;text-anchor:start;fill:#333333;stroke-width:0.24276413"
           id="path939" />
      </g>
    </g>
    <g
       id="g2712"
       transform="translate(-115.60356,20.112459)">
      <g
         id="g2706"
         transform="matrix(1.3551333,0,0,1.3551333,-72.053219,-89.577399)">
        <rect
           style="opacity:1;fill:#000000;fill-opacity:1;stroke:none;stroke-width:0.15048869;stroke-miterlimit:4;stroke-dasharray:none"
           id="rect2702"
           width="12.039095"
           height="12.039095"
           x="222.83537"
           y="250.76378"
           ry="1.5494908" />
        <rect
           style="opacity:1;fill:url(#radialGradient2720);fill-opacity:1;stroke:#1a1a1a;stroke-width:0.15048869;stroke-miterlimit:4;stroke-dasharray:none"
           id="rect2704"
           width="12.039095"
           height="12.039095"
           x="222.30621"
           y="250.23462"
           ry="1.5494908" />
      </g>
      <g
         aria-label="B"
         style="font-style:normal;font-variant:normal;font-weight:normal;font-stretch:normal;font-size:10.35975742px;line-height:1.25;font-family:'Arial Rounded MT Bold';-inkscape-font-specification:'Arial Rounded MT Bold, Normal';font-variant-ligatures:normal;font-variant-caps:normal;font-variant-numeric:normal;font-feature-settings:normal;text-align:start;letter-spacing:0px;word-spacing:0px;writing-mode:lr-tb;text-anchor:start;fill:#333333;fill-opacity:1;stroke:none;stroke-width:0.26243895"
         id="text2710">
        <path
           d="m 234.4344,258.84656 h -2.2662 q -0.49067,0 -0.70313,-0.21752 -0.2074,-0.22257 -0.2074,-0.70312 v -5.57444 q 0,-0.49068 0.21246,-0.70313 0.21751,-0.21752 0.69807,-0.21752 h 2.40278 q 0.53114,0 0.92064,0.0658 0.3895,0.0658 0.69807,0.25293 0.26304,0.15681 0.46538,0.39962 0.20234,0.23774 0.30856,0.53114 0.10623,0.28833 0.10623,0.61207 0,1.11287 -1.11286,1.62883 1.4619,0.46538 1.4619,1.81093 0,0.6222 -0.31869,1.12299 -0.31868,0.49573 -0.85994,0.73348 -0.33892,0.14163 -0.779,0.20233 -0.44009,0.0557 -1.02687,0.0557 z m -0.11129,-3.29307 h -1.56307 v 2.16503 h 1.61365 q 1.52261,0 1.52261,-1.09769 0,-0.56149 -0.39457,-0.81442 -0.39456,-0.25292 -1.17862,-0.25292 z m -1.56307,-2.99462 v 1.91716 h 1.37591 q 0.56149,0 0.865,-0.10622 0.30856,-0.10623 0.47043,-0.40468 0.12647,-0.21246 0.12647,-0.4755 0,-0.56149 -0.39962,-0.74359 -0.39962,-0.18717 -1.2191,-0.18717 z"
           style="font-style:normal;font-variant:normal;font-weight:normal;font-stretch:normal;font-size:10.35975742px;font-family:'Arial Rounded MT Bold';-inkscape-font-specification:'Arial Rounded MT Bold, Normal';font-variant-ligatures:normal;font-variant-caps:normal;font-variant-numeric:normal;font-feature-settings:normal;text-align:start;writing-mode:lr-tb;text-anchor:start;fill:#333333;stroke-width:0.26243895"
           id="path942" />
      </g>
    </g>
  </g>
</svg>
